<mxfile host="65bd71144e">
    <diagram id="ituy4fCJzwhyeR6OEHfM" name="Página-1">
        <mxGraphModel dx="2509" dy="562" grid="1" gridSize="10" guides="1" tooltips="1" connect="1" arrows="1" fold="1" page="1" pageScale="1" pageWidth="827" pageHeight="1169" math="0" shadow="0">
            <root>
                <mxCell id="0"/>
                <mxCell id="1" parent="0"/>
                <mxCell id="2" value="Documento" style="swimlane;startSize=40;" vertex="1" parent="1">
                    <mxGeometry x="-780" y="40" width="200" height="120" as="geometry"/>
                </mxCell>
                <mxCell id="3" value="Título: 1 Texto&lt;br&gt;Tipo: 1 enum TipoDocumento&lt;br&gt;Fecha de publicación: 0..1 Tiempo" style="text;html=1;strokeColor=none;fillColor=none;align=left;verticalAlign=middle;whiteSpace=wrap;rounded=0;" vertex="1" parent="2">
                    <mxGeometry x="5" y="25" width="190" height="110" as="geometry"/>
                </mxCell>
                <mxCell id="4" value="" style="endArrow=none;html=1;exitX=1;exitY=0.5;exitDx=0;exitDy=0;" edge="1" parent="1" source="2">
                    <mxGeometry width="50" height="50" relative="1" as="geometry">
                        <mxPoint x="-550" y="110" as="sourcePoint"/>
                        <mxPoint x="-460" y="100" as="targetPoint"/>
                    </mxGeometry>
                </mxCell>
                <mxCell id="6" value="0..*" style="text;html=1;strokeColor=none;fillColor=none;align=center;verticalAlign=middle;whiteSpace=wrap;rounded=0;" vertex="1" parent="1">
                    <mxGeometry x="-580" y="110" width="60" height="30" as="geometry"/>
                </mxCell>
                <mxCell id="7" value="Lee (T)" style="text;html=1;strokeColor=none;fillColor=none;align=center;verticalAlign=middle;whiteSpace=wrap;rounded=0;" vertex="1" parent="1">
                    <mxGeometry x="-520" y="70" width="60" height="30" as="geometry"/>
                </mxCell>
                <mxCell id="8" value="" style="endArrow=none;html=1;exitX=1;exitY=1;exitDx=0;exitDy=0;" edge="1" parent="1" source="7">
                    <mxGeometry width="50" height="50" relative="1" as="geometry">
                        <mxPoint x="-500" y="110" as="sourcePoint"/>
                        <mxPoint x="-460" y="190" as="targetPoint"/>
                    </mxGeometry>
                </mxCell>
                <mxCell id="9" value="0..*" style="text;html=1;strokeColor=none;fillColor=none;align=center;verticalAlign=middle;whiteSpace=wrap;rounded=0;" vertex="1" parent="1">
                    <mxGeometry x="-510" y="160" width="60" height="30" as="geometry"/>
                </mxCell>
                <mxCell id="10" value="Persona" style="swimlane;startSize=40;" vertex="1" parent="1">
                    <mxGeometry x="-500" y="190" width="200" height="160" as="geometry"/>
                </mxCell>
                <mxCell id="11" value="Nombre dado: 1 Texto (T)&lt;br&gt;Nombre de familia: 1 Texto (T)&lt;br&gt;Sexo: 1 enum Sexo&lt;br&gt;Fecha de nacimiiento: 1 Tiempo&lt;br&gt;Lugar de nacimiento: 1 Texto&lt;br&gt;Fecha de defunción: 0..1 Tiempo&lt;br&gt;Lugar de defunción: 0..1 Texto" style="text;html=1;strokeColor=none;fillColor=none;align=left;verticalAlign=middle;whiteSpace=wrap;rounded=0;" vertex="1" parent="10">
                    <mxGeometry x="5" y="40" width="190" height="110" as="geometry"/>
                </mxCell>
                <mxCell id="12" value="Evento" style="swimlane;startSize=40;" vertex="1" parent="1">
                    <mxGeometry x="-240" y="40" width="200" height="135" as="geometry"/>
                </mxCell>
                <mxCell id="13" value="Nombre: 1 Texto&lt;br&gt;Momento de celebración: 1 Tiempo&lt;br&gt;Descripción: 0..1 Texto" style="text;html=1;strokeColor=none;fillColor=none;align=left;verticalAlign=middle;whiteSpace=wrap;rounded=0;" vertex="1" parent="12">
                    <mxGeometry x="5" y="25" width="195" height="110" as="geometry"/>
                </mxCell>
                <mxCell id="14" value="" style="endArrow=none;html=1;exitX=1;exitY=1;exitDx=0;exitDy=0;" edge="1" parent="1">
                    <mxGeometry width="50" height="50" relative="1" as="geometry">
                        <mxPoint x="-344" y="100" as="sourcePoint"/>
                        <mxPoint x="-344" y="190" as="targetPoint"/>
                    </mxGeometry>
                </mxCell>
                <mxCell id="15" value="" style="endArrow=none;html=1;exitX=1;exitY=0.5;exitDx=0;exitDy=0;entryX=1;entryY=1;entryDx=0;entryDy=0;" edge="1" parent="1" target="16">
                    <mxGeometry width="50" height="50" relative="1" as="geometry">
                        <mxPoint x="-344" y="100" as="sourcePoint"/>
                        <mxPoint x="-224" y="100" as="targetPoint"/>
                    </mxGeometry>
                </mxCell>
                <mxCell id="16" value="Participa En (T)" style="text;html=1;strokeColor=none;fillColor=none;align=center;verticalAlign=middle;whiteSpace=wrap;rounded=0;" vertex="1" parent="1">
                    <mxGeometry x="-360" y="70" width="100" height="30" as="geometry"/>
                </mxCell>
                <mxCell id="17" value="" style="endArrow=none;html=1;exitX=1;exitY=0.5;exitDx=0;exitDy=0;" edge="1" parent="1">
                    <mxGeometry width="50" height="50" relative="1" as="geometry">
                        <mxPoint x="-300" y="261" as="sourcePoint"/>
                        <mxPoint x="-130" y="261" as="targetPoint"/>
                    </mxGeometry>
                </mxCell>
                <mxCell id="18" value="Visita (T)" style="text;html=1;align=center;verticalAlign=middle;resizable=0;points=[];autosize=1;strokeColor=none;fillColor=none;" vertex="1" parent="1">
                    <mxGeometry x="-260" y="230" width="60" height="20" as="geometry"/>
                </mxCell>
                <mxCell id="19" value="0..*" style="text;html=1;strokeColor=none;fillColor=none;align=center;verticalAlign=middle;whiteSpace=wrap;rounded=0;" vertex="1" parent="1">
                    <mxGeometry x="-310" y="230" width="60" height="30" as="geometry"/>
                </mxCell>
                <mxCell id="20" value="0..*" style="text;html=1;strokeColor=none;fillColor=none;align=center;verticalAlign=middle;whiteSpace=wrap;rounded=0;" vertex="1" parent="1">
                    <mxGeometry x="-300" y="100" width="60" height="30" as="geometry"/>
                </mxCell>
                <mxCell id="21" value="0..*" style="text;html=1;strokeColor=none;fillColor=none;align=center;verticalAlign=middle;whiteSpace=wrap;rounded=0;" vertex="1" parent="1">
                    <mxGeometry x="-340" y="150" width="60" height="30" as="geometry"/>
                </mxCell>
                <mxCell id="22" value="0..1" style="text;html=1;strokeColor=none;fillColor=none;align=center;verticalAlign=middle;whiteSpace=wrap;rounded=0;" vertex="1" parent="1">
                    <mxGeometry x="-190" y="225" width="60" height="30" as="geometry"/>
                </mxCell>
                <mxCell id="25" value="Lugar" style="swimlane;startSize=40;" vertex="1" parent="1">
                    <mxGeometry x="-130" y="225" width="200" height="120" as="geometry"/>
                </mxCell>
                <mxCell id="26" value="Nombre: 0..* Texto&lt;br&gt;Dirección: 0..1 Texto&lt;br&gt;País: 1 Texto" style="text;html=1;strokeColor=none;fillColor=none;align=left;verticalAlign=middle;whiteSpace=wrap;rounded=0;" vertex="1" parent="25">
                    <mxGeometry x="5" y="25" width="190" height="110" as="geometry"/>
                </mxCell>
                <mxCell id="27" value="" style="endArrow=none;html=1;exitX=1;exitY=0.5;exitDx=0;exitDy=0;" edge="1" parent="1">
                    <mxGeometry width="50" height="50" relative="1" as="geometry">
                        <mxPoint x="-300.0000000000001" y="330" as="sourcePoint"/>
                        <mxPoint x="-220" y="330" as="targetPoint"/>
                    </mxGeometry>
                </mxCell>
                <mxCell id="28" value="" style="endArrow=none;html=1;exitX=1;exitY=1;exitDx=0;exitDy=0;" edge="1" parent="1">
                    <mxGeometry width="50" height="50" relative="1" as="geometry">
                        <mxPoint x="-220" y="330" as="sourcePoint"/>
                        <mxPoint x="-220" y="420" as="targetPoint"/>
                    </mxGeometry>
                </mxCell>
                <mxCell id="29" value="" style="endArrow=none;html=1;" edge="1" parent="1">
                    <mxGeometry width="50" height="50" relative="1" as="geometry">
                        <mxPoint x="-420" y="420" as="sourcePoint"/>
                        <mxPoint x="-220" y="420" as="targetPoint"/>
                    </mxGeometry>
                </mxCell>
                <mxCell id="30" value="" style="endArrow=none;html=1;exitX=1;exitY=1;exitDx=0;exitDy=0;" edge="1" parent="1">
                    <mxGeometry width="50" height="50" relative="1" as="geometry">
                        <mxPoint x="-420" y="350" as="sourcePoint"/>
                        <mxPoint x="-420" y="420" as="targetPoint"/>
                    </mxGeometry>
                </mxCell>
                <mxCell id="31" value="0..*" style="text;html=1;strokeColor=none;fillColor=none;align=center;verticalAlign=middle;whiteSpace=wrap;rounded=0;" vertex="1" parent="1">
                    <mxGeometry x="-300" y="330" width="60" height="30" as="geometry"/>
                </mxCell>
                <mxCell id="32" value="0..*" style="text;html=1;strokeColor=none;fillColor=none;align=center;verticalAlign=middle;whiteSpace=wrap;rounded=0;" vertex="1" parent="1">
                    <mxGeometry x="-420" y="390" width="60" height="30" as="geometry"/>
                </mxCell>
                <mxCell id="33" value="Contacta Con (T)" style="text;html=1;align=center;verticalAlign=middle;resizable=0;points=[];autosize=1;strokeColor=none;fillColor=none;" vertex="1" parent="1">
                    <mxGeometry x="-385" y="430" width="110" height="20" as="geometry"/>
                </mxCell>
                <mxCell id="34" value="" style="endArrow=none;html=1;exitX=1;exitY=0.5;exitDx=0;exitDy=0;" edge="1" parent="1">
                    <mxGeometry width="50" height="50" relative="1" as="geometry">
                        <mxPoint x="-669" y="264" as="sourcePoint"/>
                        <mxPoint x="-499" y="264" as="targetPoint"/>
                    </mxGeometry>
                </mxCell>
                <mxCell id="35" value="Ocupación" style="swimlane;startSize=40;" vertex="1" parent="1">
                    <mxGeometry x="-870" y="220" width="200" height="120" as="geometry"/>
                </mxCell>
                <mxCell id="36" value="Nombre: 1 Texto&lt;br&gt;Desde: 1 Tiempo&lt;br&gt;Hasta: 1 Tiempo" style="text;html=1;strokeColor=none;fillColor=none;align=left;verticalAlign=middle;whiteSpace=wrap;rounded=0;" vertex="1" parent="35">
                    <mxGeometry x="5" y="25" width="190" height="110" as="geometry"/>
                </mxCell>
                <mxCell id="37" value="0..*" style="text;html=1;strokeColor=none;fillColor=none;align=center;verticalAlign=middle;whiteSpace=wrap;rounded=0;" vertex="1" parent="1">
                    <mxGeometry x="-680" y="230" width="60" height="30" as="geometry"/>
                </mxCell>
                <mxCell id="38" value="1" style="text;html=1;align=center;verticalAlign=middle;resizable=0;points=[];autosize=1;strokeColor=none;fillColor=none;" vertex="1" parent="1">
                    <mxGeometry x="-530" y="235" width="20" height="20" as="geometry"/>
                </mxCell>
                <mxCell id="39" value="Desempeña" style="text;html=1;align=center;verticalAlign=middle;resizable=0;points=[];autosize=1;strokeColor=none;fillColor=none;" vertex="1" parent="1">
                    <mxGeometry x="-620" y="230" width="80" height="20" as="geometry"/>
                </mxCell>
                <mxCell id="41" value="" style="endArrow=classic;html=1;" edge="1" parent="1">
                    <mxGeometry width="50" height="50" relative="1" as="geometry">
                        <mxPoint x="-620" y="239.57999999999998" as="sourcePoint"/>
                        <mxPoint x="-635" y="239.57999999999998" as="targetPoint"/>
                    </mxGeometry>
                </mxCell>
                <mxCell id="42" value="" style="endArrow=classic;html=1;" edge="1" parent="1">
                    <mxGeometry width="50" height="50" relative="1" as="geometry">
                        <mxPoint x="-530" y="84.78999999999992" as="sourcePoint"/>
                        <mxPoint x="-545" y="84.78999999999992" as="targetPoint"/>
                    </mxGeometry>
                </mxCell>
                <mxCell id="43" value="" style="endArrow=classic;html=1;" edge="1" parent="1">
                    <mxGeometry width="50" height="50" relative="1" as="geometry">
                        <mxPoint x="-260" y="84.78999999999999" as="sourcePoint"/>
                        <mxPoint x="-250" y="84.78999999999999" as="targetPoint"/>
                    </mxGeometry>
                </mxCell>
                <mxCell id="44" value="" style="endArrow=classic;html=1;" edge="1" parent="1">
                    <mxGeometry width="50" height="50" relative="1" as="geometry">
                        <mxPoint x="-200" y="239.87" as="sourcePoint"/>
                        <mxPoint x="-190" y="239.87" as="targetPoint"/>
                        <Array as="points">
                            <mxPoint x="-200" y="239.87"/>
                        </Array>
                    </mxGeometry>
                </mxCell>
                <mxCell id="45" value="" style="endArrow=classic;html=1;" edge="1" parent="1">
                    <mxGeometry width="50" height="50" relative="1" as="geometry">
                        <mxPoint x="-265" y="438.95000000000005" as="sourcePoint"/>
                        <mxPoint x="-255" y="438.95000000000005" as="targetPoint"/>
                        <Array as="points">
                            <mxPoint x="-265" y="438.95000000000005"/>
                        </Array>
                    </mxGeometry>
                </mxCell>
            </root>
        </mxGraphModel>
    </diagram>
</mxfile>